<?xml version="1.0" encoding="UTF-8"?>
<svg xmlns="http://www.w3.org/2000/svg" xmlns:xlink="http://www.w3.org/1999/xlink" width="48px" height="48px" viewBox="0 0 48 48" version="1.1">
<defs>
<filter id="alpha" filterUnits="objectBoundingBox" x="0%" y="0%" width="100%" height="100%">
  <feColorMatrix type="matrix" in="SourceGraphic" values="0 0 0 0 1 0 0 0 0 1 0 0 0 0 1 0 0 0 1 0"/>
</filter>
<mask id="mask0">
  <g filter="url(#alpha)">
<rect x="0" y="0" width="48" height="48" style="fill:rgb(0%,0%,0%);fill-opacity:0.2;stroke:none;"/>
  </g>
</mask>
<clipPath id="clip1">
  <rect x="0" y="0" width="48" height="48"/>
</clipPath>
<g id="surface5" clip-path="url(#clip1)">
<path style=" stroke:none;fill-rule:nonzero;fill:rgb(100%,100%,100%);fill-opacity:1;" d="M 46.113281 14.65625 C 44.90625 11.800781 43.175781 9.234375 40.972656 7.027344 C 38.765625 4.824219 36.199219 3.09375 33.34375 1.886719 C 30.382812 0.636719 27.238281 0 24 0 C 23.664062 0 23.332031 0.0078125 23 0.0195312 C 25.886719 0.136719 28.6875 0.765625 31.339844 1.886719 C 34.199219 3.09375 36.765625 4.824219 38.96875 7.027344 C 41.171875 9.234375 42.90625 11.800781 44.113281 14.65625 C 45.367188 17.617188 46 20.761719 46 24 C 46 27.242188 45.367188 30.382812 44.113281 33.34375 C 42.90625 36.199219 41.171875 38.765625 38.96875 40.96875 C 36.765625 43.175781 34.199219 44.90625 31.339844 46.113281 C 28.6875 47.234375 25.886719 47.863281 23 47.980469 C 23.332031 47.992188 23.664062 48 24 48 C 27.238281 48 30.382812 47.363281 33.34375 46.113281 C 36.199219 44.90625 38.765625 43.175781 40.972656 40.96875 C 43.175781 38.765625 44.90625 36.199219 46.113281 33.34375 C 47.363281 30.382812 48 27.242188 48 24 C 48 20.761719 47.363281 17.617188 46.113281 14.65625 Z M 46.113281 14.65625 "/>
</g>
<mask id="mask1">
  <g filter="url(#alpha)">
<rect x="0" y="0" width="48" height="48" style="fill:rgb(0%,0%,0%);fill-opacity:0.101961;stroke:none;"/>
  </g>
</mask>
<clipPath id="clip2">
  <rect x="0" y="0" width="48" height="48"/>
</clipPath>
<g id="surface8" clip-path="url(#clip2)">
<path style=" stroke:none;fill-rule:nonzero;fill:rgb(0%,0%,0%);fill-opacity:1;" d="M 1.886719 33.34375 C 3.09375 36.199219 4.824219 38.765625 7.027344 40.96875 C 9.234375 43.175781 11.800781 44.90625 14.65625 46.113281 C 17.617188 47.363281 20.761719 48 24 48 C 24.335938 48 24.667969 47.992188 25 47.980469 C 22.113281 47.863281 19.3125 47.234375 16.65625 46.113281 C 13.800781 44.90625 11.234375 43.175781 9.03125 40.96875 C 6.824219 38.765625 5.09375 36.199219 3.886719 33.34375 C 2.632812 30.382812 2 27.242188 2 24 C 2 20.761719 2.632812 17.617188 3.886719 14.65625 C 5.09375 11.800781 6.824219 9.234375 9.03125 7.03125 C 11.234375 4.824219 13.800781 3.09375 16.65625 1.886719 C 19.3125 0.765625 22.113281 0.136719 25 0.0195312 C 24.667969 0.0078125 24.335938 0 24 0 C 20.761719 0 17.617188 0.636719 14.65625 1.886719 C 11.800781 3.09375 9.234375 4.824219 7.027344 7.03125 C 4.824219 9.234375 3.09375 11.800781 1.886719 14.65625 C 0.636719 17.617188 0 20.761719 0 24 C 0 27.238281 0.636719 30.382812 1.886719 33.34375 Z M 1.886719 33.34375 "/>
</g>
</defs>
<g id="surface1">
<path style=" stroke:none;fill-rule:nonzero;fill:rgb(92.941177%,33.333334%,39.215687%);fill-opacity:1;" d="M 46.113281 14.65625 C 44.90625 11.800781 43.175781 9.234375 40.972656 7.027344 C 38.765625 4.824219 36.199219 3.09375 33.34375 1.886719 C 30.382812 0.636719 27.238281 0 24 0 C 20.761719 0 17.617188 0.636719 14.65625 1.886719 C 11.800781 3.09375 9.234375 4.824219 7.027344 7.027344 C 4.824219 9.234375 3.09375 11.800781 1.886719 14.65625 C 0.636719 17.617188 0 20.761719 0 24 C 0 27.238281 0.636719 30.382812 1.886719 33.34375 C 3.09375 36.199219 4.824219 38.765625 7.027344 40.96875 C 9.234375 43.175781 11.800781 44.90625 14.65625 46.113281 C 17.617188 47.363281 20.761719 48 24 48 C 27.242188 48 30.382812 47.363281 33.34375 46.113281 C 36.199219 44.90625 38.765625 43.175781 40.972656 40.96875 C 43.175781 38.765625 44.90625 36.199219 46.113281 33.34375 C 47.363281 30.382812 48 27.238281 48 24 C 48 20.761719 47.363281 17.617188 46.113281 14.65625 Z M 46.113281 14.65625 "/>
<path style=" stroke:none;fill-rule:nonzero;fill:rgb(90.196079%,91.37255%,92.941177%);fill-opacity:1;" d="M 0.0078125 24.675781 C 0.0898438 27.675781 0.722656 30.589844 1.886719 33.34375 C 3.09375 36.199219 4.824219 38.765625 7.027344 40.96875 C 9.234375 43.175781 11.800781 44.90625 14.65625 46.113281 C 17.617188 47.363281 20.761719 48 24 48 C 27.242188 48 30.382812 47.363281 33.34375 46.113281 C 36.199219 44.90625 38.765625 43.175781 40.972656 40.96875 C 43.175781 38.765625 44.90625 36.199219 46.113281 33.34375 C 47.28125 30.589844 47.910156 27.675781 47.992188 24.675781 Z M 0.0078125 24.675781 "/>
<path style=" stroke:none;fill-rule:nonzero;fill:rgb(26.274511%,29.019609%,32.941177%);fill-opacity:1;" d="M 47.886719 26.363281 C 47.960938 25.582031 48 24.792969 48 24 C 48 23.109375 47.953125 22.222656 47.855469 21.347656 C 46.664062 21.53125 44.953125 21.769531 42.792969 22.007812 C 38.699219 22.460938 32.113281 23 24 23 C 15.886719 23 9.300781 22.460938 5.207031 22.007812 C 3.046875 21.769531 1.335938 21.53125 0.144531 21.347656 C 0.046875 22.222656 0 23.109375 0 24 C 0 24.792969 0.0390625 25.582031 0.113281 26.363281 C 4.007812 26.949219 12.585938 28 24 28 C 35.414062 28 43.992188 26.949219 47.886719 26.363281 Z M 47.886719 26.363281 "/>
<path style=" stroke:none;fill-rule:nonzero;fill:rgb(90.196079%,91.37255%,92.941177%);fill-opacity:1;" d="M 29 25 C 29 27.761719 26.761719 30 24 30 C 21.238281 30 19 27.761719 19 25 C 19 22.238281 21.238281 20 24 20 C 26.761719 20 29 22.238281 29 25 Z M 29 25 "/>
<path style=" stroke:none;fill-rule:nonzero;fill:rgb(26.274511%,29.019609%,32.941177%);fill-opacity:1;" d="M 24 16 C 19.035156 16 15 20.039062 15 25 C 15 29.960938 19.039062 34 24 34 C 28.960938 34 33 29.960938 33 25 C 33 20.039062 28.960938 16 24 16 Z M 24 29 C 21.792969 29 20 27.207031 20 25 C 20 22.792969 21.792969 21 24 21 C 26.207031 21 28 22.792969 28 25 C 28 27.203125 26.207031 29 24 29 Z M 24 29 "/>
<use xlink:href="#surface5" mask="url(#mask0)"/>
<use xlink:href="#surface8" mask="url(#mask1)"/>
</g>
</svg>
